<svg width="28" height="28" viewBox="0 0 28 28" fill="none" xmlns="http://www.w3.org/2000/svg">
<path opacity="0.3" d="M2.87626 18.4768C8.88344 8.07516 16.2094 1.76838 26.499 0.0198461C26.7015 -0.0162791 26.9097 -0.00294757 27.106 0.0587061C27.3022 0.12036 27.4806 0.22851 27.6261 0.373953C27.7715 0.519396 27.8797 0.697825 27.9413 0.894054C28.003 1.09028 28.0163 1.2985 27.9802 1.50099C26.2316 11.7906 19.9249 19.1166 9.52322 25.1238L2.87626 18.4768ZM2.54727 21.4713L0.886923 25.8265C0.818374 26.0062 0.803286 26.202 0.843474 26.39C0.883663 26.5781 0.977415 26.7506 1.11342 26.8866C1.24943 27.0226 1.42187 27.1164 1.60997 27.1565C1.79806 27.1967 1.99377 27.1816 2.17348 27.1131L6.53153 25.4513L2.54727 21.4713ZM20.3 5.59725C19.8847 5.59725 19.4787 5.72041 19.1334 5.95115C18.7881 6.18189 18.5189 6.50986 18.36 6.89357C18.201 7.27728 18.1594 7.6995 18.2405 8.10685C18.3215 8.5142 18.5215 8.88837 18.8152 9.18205C19.1088 9.47573 19.483 9.67572 19.8904 9.75675C20.2977 9.83778 20.7199 9.79619 21.1037 9.63725C21.4874 9.47831 21.8153 9.20916 22.0461 8.86383C22.2768 8.5185 22.4 8.1125 22.4 7.69717C22.4 7.14024 22.1787 6.60611 21.7849 6.2123C21.3911 5.81849 20.857 5.59725 20.3 5.59725Z" fill="#545454"/>
<path d="M2.87582 18.4768L0.346111 15.9471C0.217061 15.8181 0.119655 15.6609 0.061532 15.4879C0.00340872 15.3149 -0.0138568 15.1308 0.0110974 14.95C0.0360515 14.7692 0.102545 14.5967 0.205359 14.4459C0.308174 14.2951 0.444517 14.1702 0.603699 14.081L10.0142 8.80457C7.24268 11.72 4.84481 14.9691 2.87582 18.4768ZM9.51998 25.121L12.0497 27.6507C12.1787 27.7798 12.3359 27.8772 12.5089 27.9353C12.6819 27.9934 12.866 28.0107 13.0468 27.9857C13.2276 27.9608 13.4001 27.8943 13.5509 27.7915C13.7017 27.6886 13.8266 27.5523 13.9158 27.3931L19.1922 17.9812C16.2771 20.7536 13.028 23.152 9.51998 25.121ZM7.05607 22.6557L14.816 14.8958C15.0328 14.6658 15.1514 14.3603 15.1467 14.0443C15.1421 13.7283 15.0144 13.4265 14.791 13.2031C14.5675 12.9796 14.2657 12.852 13.9497 12.8473C13.6337 12.8426 13.3283 12.9612 13.0983 13.178L5.33833 20.9379L7.05607 22.6557Z" fill="#545454"/>
</svg>
