<svg width="297" height="52" viewBox="0 0 297 52" fill="none" xmlns="http://www.w3.org/2000/svg">
<path d="M0 18C0 8.05892 8.05888 4.57764e-05 18 4.57764e-05H297V52H18C8.05888 52 0 43.9412 0 34V18Z" fill="#545454"/>
<path d="M61.324 32H59.364L54.926 25.294V32H52.966V22.214H54.926L59.364 28.934V22.214H61.324V32ZM70.4709 27.954C70.4709 28.234 70.4523 28.486 70.4149 28.71H64.7449C64.7916 29.27 64.9876 29.7086 65.3329 30.026C65.6783 30.3433 66.1029 30.502 66.6069 30.502C67.3349 30.502 67.8529 30.1893 68.1609 29.564H70.2749C70.0509 30.3106 69.6216 30.9266 68.9869 31.412C68.3523 31.888 67.5729 32.126 66.6489 32.126C65.9023 32.126 65.2303 31.9626 64.6329 31.636C64.0449 31.3 63.5829 30.8286 63.2469 30.222C62.9203 29.6153 62.7569 28.9153 62.7569 28.122C62.7569 27.3193 62.9203 26.6146 63.2469 26.008C63.5736 25.4013 64.0309 24.9346 64.6189 24.608C65.2069 24.2813 65.8836 24.118 66.6489 24.118C67.3863 24.118 68.0443 24.2766 68.6229 24.594C69.2109 24.9113 69.6636 25.364 69.9809 25.952C70.3076 26.5306 70.4709 27.198 70.4709 27.954ZM68.4409 27.394C68.4316 26.89 68.2496 26.4886 67.8949 26.19C67.5403 25.882 67.1063 25.728 66.5929 25.728C66.1076 25.728 65.6969 25.8773 65.3609 26.176C65.0343 26.4653 64.8336 26.8713 64.7589 27.394H68.4409ZM82.6535 24.244L80.3855 32H78.2715L76.8575 26.582L75.4435 32H73.3155L71.0335 24.244H73.0215L74.3935 30.152L75.8775 24.244H77.9495L79.4055 30.138L80.7775 24.244H82.6535ZM90.424 32.098C89.7427 32.098 89.1267 31.9813 88.576 31.748C88.0347 31.5146 87.6053 31.1786 87.288 30.74C86.9707 30.3013 86.8073 29.7833 86.798 29.186H88.898C88.926 29.5873 89.066 29.9046 89.318 30.138C89.5793 30.3713 89.934 30.488 90.382 30.488C90.8393 30.488 91.1987 30.3806 91.46 30.166C91.7213 29.942 91.852 29.6526 91.852 29.298C91.852 29.0086 91.7633 28.7706 91.586 28.584C91.4087 28.3973 91.1847 28.2526 90.914 28.15C90.6527 28.038 90.2887 27.9166 89.822 27.786C89.1873 27.5993 88.6693 27.4173 88.268 27.24C87.876 27.0533 87.5353 26.778 87.246 26.414C86.966 26.0406 86.826 25.546 86.826 24.93C86.826 24.3513 86.9707 23.8473 87.26 23.418C87.5493 22.9886 87.9553 22.662 88.478 22.438C89.0007 22.2046 89.598 22.088 90.27 22.088C91.278 22.088 92.0947 22.3353 92.72 22.83C93.3547 23.3153 93.7047 23.9966 93.77 24.874H91.614C91.5953 24.538 91.4507 24.2626 91.18 24.048C90.9187 23.824 90.5687 23.712 90.13 23.712C89.7473 23.712 89.4393 23.81 89.206 24.006C88.982 24.202 88.87 24.4866 88.87 24.86C88.87 25.1213 88.954 25.3406 89.122 25.518C89.2993 25.686 89.514 25.826 89.766 25.938C90.0273 26.0406 90.3913 26.162 90.858 26.302C91.4927 26.4886 92.0107 26.6753 92.412 26.862C92.8133 27.0486 93.1587 27.3286 93.448 27.702C93.7373 28.0753 93.882 28.5653 93.882 29.172C93.882 29.6946 93.7467 30.18 93.476 30.628C93.2053 31.076 92.8087 31.4353 92.286 31.706C91.7633 31.9673 91.1427 32.098 90.424 32.098ZM102.791 27.954C102.791 28.234 102.773 28.486 102.735 28.71H97.0652C97.1119 29.27 97.3079 29.7086 97.6532 30.026C97.9986 30.3433 98.4232 30.502 98.9272 30.502C99.6552 30.502 100.173 30.1893 100.481 29.564H102.595C102.371 30.3106 101.942 30.9266 101.307 31.412C100.673 31.888 99.8932 32.126 98.9692 32.126C98.2226 32.126 97.5506 31.9626 96.9532 31.636C96.3652 31.3 95.9032 30.8286 95.5672 30.222C95.2406 29.6153 95.0772 28.9153 95.0772 28.122C95.0772 27.3193 95.2406 26.6146 95.5672 26.008C95.8939 25.4013 96.3512 24.9346 96.9392 24.608C97.5272 24.2813 98.2039 24.118 98.9692 24.118C99.7066 24.118 100.365 24.2766 100.943 24.594C101.531 24.9113 101.984 25.364 102.301 25.952C102.628 26.5306 102.791 27.198 102.791 27.954ZM100.761 27.394C100.752 26.89 100.57 26.4886 100.215 26.19C99.8606 25.882 99.4266 25.728 98.9132 25.728C98.4279 25.728 98.0172 25.8773 97.6812 26.176C97.3546 26.4653 97.1539 26.8713 97.0792 27.394H100.761ZM106.182 21.64V32H104.222V21.64H106.182ZM115.328 27.954C115.328 28.234 115.31 28.486 115.272 28.71H109.602C109.649 29.27 109.845 29.7086 110.19 30.026C110.536 30.3433 110.96 30.502 111.464 30.502C112.192 30.502 112.71 30.1893 113.018 29.564H115.132C114.908 30.3106 114.479 30.9266 113.844 31.412C113.21 31.888 112.43 32.126 111.506 32.126C110.76 32.126 110.088 31.9626 109.49 31.636C108.902 31.3 108.44 30.8286 108.104 30.222C107.778 29.6153 107.614 28.9153 107.614 28.122C107.614 27.3193 107.778 26.6146 108.104 26.008C108.431 25.4013 108.888 24.9346 109.476 24.608C110.064 24.2813 110.741 24.118 111.506 24.118C112.244 24.118 112.902 24.2766 113.48 24.594C114.068 24.9113 114.521 25.364 114.838 25.952C115.165 26.5306 115.328 27.198 115.328 27.954ZM113.298 27.394C113.289 26.89 113.107 26.4886 112.752 26.19C112.398 25.882 111.964 25.728 111.45 25.728C110.965 25.728 110.554 25.8773 110.218 26.176C109.892 26.4653 109.691 26.8713 109.616 27.394H113.298ZM116.255 28.122C116.255 27.3193 116.418 26.6193 116.745 26.022C117.072 25.4153 117.524 24.9486 118.103 24.622C118.682 24.286 119.344 24.118 120.091 24.118C121.052 24.118 121.846 24.3606 122.471 24.846C123.106 25.322 123.53 25.994 123.745 26.862H121.631C121.519 26.526 121.328 26.2646 121.057 26.078C120.796 25.882 120.469 25.784 120.077 25.784C119.517 25.784 119.074 25.9893 118.747 26.4C118.42 26.8013 118.257 27.3753 118.257 28.122C118.257 28.8593 118.42 29.4333 118.747 29.844C119.074 30.2453 119.517 30.446 120.077 30.446C120.87 30.446 121.388 30.0913 121.631 29.382H123.745C123.53 30.222 123.106 30.8893 122.471 31.384C121.836 31.8786 121.043 32.126 120.091 32.126C119.344 32.126 118.682 31.9626 118.103 31.636C117.524 31.3 117.072 30.8333 116.745 30.236C116.418 29.6293 116.255 28.9246 116.255 28.122ZM127.463 25.854V29.606C127.463 29.8673 127.524 30.0586 127.645 30.18C127.776 30.292 127.99 30.348 128.289 30.348H129.199V32H127.967C126.315 32 125.489 31.1973 125.489 29.592V25.854H124.565V24.244H125.489V22.326H127.463V24.244H129.199V25.854H127.463ZM131.603 23.32C131.257 23.32 130.968 23.2126 130.735 22.998C130.511 22.774 130.399 22.4986 130.399 22.172C130.399 21.8453 130.511 21.5746 130.735 21.36C130.968 21.136 131.257 21.024 131.603 21.024C131.948 21.024 132.233 21.136 132.457 21.36C132.69 21.5746 132.807 21.8453 132.807 22.172C132.807 22.4986 132.69 22.774 132.457 22.998C132.233 23.2126 131.948 23.32 131.603 23.32ZM132.569 24.244V32H130.609V24.244H132.569ZM137.949 32.126C137.202 32.126 136.53 31.9626 135.933 31.636C135.336 31.3 134.864 30.8286 134.519 30.222C134.183 29.6153 134.015 28.9153 134.015 28.122C134.015 27.3286 134.188 26.6286 134.533 26.022C134.888 25.4153 135.368 24.9486 135.975 24.622C136.582 24.286 137.258 24.118 138.005 24.118C138.752 24.118 139.428 24.286 140.035 24.622C140.642 24.9486 141.118 25.4153 141.463 26.022C141.818 26.6286 141.995 27.3286 141.995 28.122C141.995 28.9153 141.813 29.6153 141.449 30.222C141.094 30.8286 140.609 31.3 139.993 31.636C139.386 31.9626 138.705 32.126 137.949 32.126ZM137.949 30.418C138.304 30.418 138.635 30.334 138.943 30.166C139.26 29.9886 139.512 29.7273 139.699 29.382C139.886 29.0366 139.979 28.6166 139.979 28.122C139.979 27.3846 139.783 26.82 139.391 26.428C139.008 26.0266 138.537 25.826 137.977 25.826C137.417 25.826 136.946 26.0266 136.563 26.428C136.19 26.82 136.003 27.3846 136.003 28.122C136.003 28.8593 136.185 29.4286 136.549 29.83C136.922 30.222 137.389 30.418 137.949 30.418ZM147.731 24.132C148.655 24.132 149.401 24.426 149.971 25.014C150.54 25.5926 150.825 26.4046 150.825 27.45V32H148.865V27.716C148.865 27.1 148.711 26.6286 148.403 26.302C148.095 25.966 147.675 25.798 147.143 25.798C146.601 25.798 146.172 25.966 145.855 26.302C145.547 26.6286 145.393 27.1 145.393 27.716V32H143.433V24.244H145.393V25.21C145.654 24.874 145.985 24.6126 146.387 24.426C146.797 24.23 147.245 24.132 147.731 24.132ZM163.543 32L162.479 30.95C161.573 31.762 160.467 32.168 159.161 32.168C158.442 32.168 157.807 32.0466 157.257 31.804C156.715 31.552 156.295 31.202 155.997 30.754C155.698 30.2966 155.549 29.7693 155.549 29.172C155.549 28.528 155.731 27.9493 156.095 27.436C156.459 26.9226 156.995 26.5073 157.705 26.19C157.453 25.882 157.271 25.588 157.159 25.308C157.047 25.0186 156.991 24.7106 156.991 24.384C156.991 23.936 157.107 23.5346 157.341 23.18C157.574 22.816 157.905 22.5313 158.335 22.326C158.773 22.1206 159.282 22.018 159.861 22.018C160.449 22.018 160.953 22.13 161.373 22.354C161.793 22.578 162.105 22.8766 162.311 23.25C162.516 23.6233 162.605 24.0386 162.577 24.496H160.673C160.682 24.188 160.607 23.9546 160.449 23.796C160.29 23.628 160.075 23.544 159.805 23.544C159.543 23.544 159.324 23.6233 159.147 23.782C158.979 23.9313 158.895 24.1273 158.895 24.37C158.895 24.6033 158.965 24.8366 159.105 25.07C159.245 25.294 159.473 25.574 159.791 25.91L162.255 28.346C162.273 28.3273 162.287 28.3086 162.297 28.29C162.306 28.2713 162.315 28.2526 162.325 28.234L163.123 26.904H165.167L164.187 28.626C164 28.99 163.799 29.3353 163.585 29.662L165.951 32H163.543ZM159.217 30.544C159.982 30.544 160.659 30.2733 161.247 29.732L158.839 27.352C157.933 27.7533 157.481 28.3226 157.481 29.06C157.481 29.48 157.639 29.8346 157.957 30.124C158.274 30.404 158.694 30.544 159.217 30.544ZM173.673 22.228C174.7 22.228 175.6 22.4286 176.375 22.83C177.159 23.2313 177.761 23.8053 178.181 24.552C178.61 25.2893 178.825 26.148 178.825 27.128C178.825 28.108 178.61 28.9666 178.181 29.704C177.761 30.432 177.159 30.9966 176.375 31.398C175.6 31.7993 174.7 32 173.673 32H170.257V22.228H173.673ZM173.603 30.334C174.63 30.334 175.423 30.054 175.983 29.494C176.543 28.934 176.823 28.1453 176.823 27.128C176.823 26.1106 176.543 25.3173 175.983 24.748C175.423 24.1693 174.63 23.88 173.603 23.88H172.217V30.334H173.603ZM187.502 27.954C187.502 28.234 187.484 28.486 187.446 28.71H181.776C181.823 29.27 182.019 29.7086 182.364 30.026C182.71 30.3433 183.134 30.502 183.638 30.502C184.366 30.502 184.884 30.1893 185.192 29.564H187.306C187.082 30.3106 186.653 30.9266 186.018 31.412C185.384 31.888 184.604 32.126 183.68 32.126C182.934 32.126 182.262 31.9626 181.664 31.636C181.076 31.3 180.614 30.8286 180.278 30.222C179.952 29.6153 179.788 28.9153 179.788 28.122C179.788 27.3193 179.952 26.6146 180.278 26.008C180.605 25.4013 181.062 24.9346 181.65 24.608C182.238 24.2813 182.915 24.118 183.68 24.118C184.418 24.118 185.076 24.2766 185.654 24.594C186.242 24.9113 186.695 25.364 187.012 25.952C187.339 26.5306 187.502 27.198 187.502 27.954ZM185.472 27.394C185.463 26.89 185.281 26.4886 184.926 26.19C184.572 25.882 184.138 25.728 183.624 25.728C183.139 25.728 182.728 25.8773 182.392 26.176C182.066 26.4653 181.865 26.8713 181.79 27.394H185.472ZM192.167 30.194L194.127 24.244H196.213L193.343 32H190.963L188.107 24.244H190.207L192.167 30.194ZM204.524 27.954C204.524 28.234 204.505 28.486 204.468 28.71H198.798C198.844 29.27 199.04 29.7086 199.386 30.026C199.731 30.3433 200.156 30.502 200.66 30.502C201.388 30.502 201.906 30.1893 202.214 29.564H204.328C204.104 30.3106 203.674 30.9266 203.04 31.412C202.405 31.888 201.626 32.126 200.702 32.126C199.955 32.126 199.283 31.9626 198.686 31.636C198.098 31.3 197.636 30.8286 197.3 30.222C196.973 29.6153 196.81 28.9153 196.81 28.122C196.81 27.3193 196.973 26.6146 197.3 26.008C197.626 25.4013 198.084 24.9346 198.672 24.608C199.26 24.2813 199.936 24.118 200.702 24.118C201.439 24.118 202.097 24.2766 202.676 24.594C203.264 24.9113 203.716 25.364 204.034 25.952C204.36 26.5306 204.524 27.198 204.524 27.954ZM202.494 27.394C202.484 26.89 202.302 26.4886 201.948 26.19C201.593 25.882 201.159 25.728 200.646 25.728C200.16 25.728 199.75 25.8773 199.414 26.176C199.087 26.4653 198.886 26.8713 198.812 27.394H202.494ZM207.914 21.64V32H205.954V21.64H207.914ZM211.811 25.364C212.063 25.0093 212.408 24.7153 212.847 24.482C213.295 24.2393 213.803 24.118 214.373 24.118C215.035 24.118 215.633 24.2813 216.165 24.608C216.706 24.9346 217.131 25.4013 217.439 26.008C217.756 26.6053 217.915 27.3006 217.915 28.094C217.915 28.8873 217.756 29.592 217.439 30.208C217.131 30.8146 216.706 31.286 216.165 31.622C215.633 31.958 215.035 32.126 214.373 32.126C213.803 32.126 213.299 32.0093 212.861 31.776C212.431 31.5426 212.081 31.2486 211.811 30.894V35.696H209.851V24.244H211.811V25.364ZM215.913 28.094C215.913 27.6273 215.815 27.226 215.619 26.89C215.432 26.5446 215.18 26.2833 214.863 26.106C214.555 25.9286 214.219 25.84 213.855 25.84C213.5 25.84 213.164 25.9333 212.847 26.12C212.539 26.2973 212.287 26.5586 212.091 26.904C211.904 27.2493 211.811 27.6553 211.811 28.122C211.811 28.5886 211.904 28.9946 212.091 29.34C212.287 29.6853 212.539 29.9513 212.847 30.138C213.164 30.3153 213.5 30.404 213.855 30.404C214.219 30.404 214.555 30.3106 214.863 30.124C215.18 29.9373 215.432 29.6713 215.619 29.326C215.815 28.9806 215.913 28.57 215.913 28.094ZM228.971 24.132C229.923 24.132 230.688 24.426 231.267 25.014C231.855 25.5926 232.149 26.4046 232.149 27.45V32H230.189V27.716C230.189 27.1093 230.035 26.6473 229.727 26.33C229.419 26.0033 228.999 25.84 228.467 25.84C227.935 25.84 227.51 26.0033 227.193 26.33C226.885 26.6473 226.731 27.1093 226.731 27.716V32H224.771V27.716C224.771 27.1093 224.617 26.6473 224.309 26.33C224.001 26.0033 223.581 25.84 223.049 25.84C222.508 25.84 222.078 26.0033 221.761 26.33C221.453 26.6473 221.299 27.1093 221.299 27.716V32H219.339V24.244H221.299V25.182C221.551 24.8553 221.873 24.5986 222.265 24.412C222.666 24.2253 223.105 24.132 223.581 24.132C224.188 24.132 224.729 24.2626 225.205 24.524C225.681 24.776 226.05 25.14 226.311 25.616C226.563 25.168 226.927 24.8086 227.403 24.538C227.888 24.2673 228.411 24.132 228.971 24.132ZM241.219 27.954C241.219 28.234 241.2 28.486 241.163 28.71H235.493C235.54 29.27 235.736 29.7086 236.081 30.026C236.426 30.3433 236.851 30.502 237.355 30.502C238.083 30.502 238.601 30.1893 238.909 29.564H241.023C240.799 30.3106 240.37 30.9266 239.735 31.412C239.1 31.888 238.321 32.126 237.397 32.126C236.65 32.126 235.978 31.9626 235.381 31.636C234.793 31.3 234.331 30.8286 233.995 30.222C233.668 29.6153 233.505 28.9153 233.505 28.122C233.505 27.3193 233.668 26.6146 233.995 26.008C234.322 25.4013 234.779 24.9346 235.367 24.608C235.955 24.2813 236.632 24.118 237.397 24.118C238.134 24.118 238.792 24.2766 239.371 24.594C239.959 24.9113 240.412 25.364 240.729 25.952C241.056 26.5306 241.219 27.198 241.219 27.954ZM239.189 27.394C239.18 26.89 238.998 26.4886 238.643 26.19C238.288 25.882 237.854 25.728 237.341 25.728C236.856 25.728 236.445 25.8773 236.109 26.176C235.782 26.4653 235.582 26.8713 235.507 27.394H239.189ZM246.948 24.132C247.872 24.132 248.618 24.426 249.188 25.014C249.757 25.5926 250.042 26.4046 250.042 27.45V32H248.082V27.716C248.082 27.1 247.928 26.6286 247.62 26.302C247.312 25.966 246.892 25.798 246.36 25.798C245.818 25.798 245.389 25.966 245.072 26.302C244.764 26.6286 244.61 27.1 244.61 27.716V32H242.65V24.244H244.61V25.21C244.871 24.874 245.202 24.6126 245.604 24.426C246.014 24.23 246.462 24.132 246.948 24.132ZM254.187 25.854V29.606C254.187 29.8673 254.248 30.0586 254.369 30.18C254.5 30.292 254.715 30.348 255.013 30.348H255.923V32H254.691C253.039 32 252.213 31.1973 252.213 29.592V25.854H251.289V24.244H252.213V22.326H254.187V24.244H255.923V25.854H254.187Z" fill="white"/>
<path opacity="0.3" d="M20.0179 9.74997H33.165C33.5197 9.74997 33.8629 9.87565 34.1337 10.1047L42.4687 17.1547C42.8057 17.4398 43 17.8587 43 18.3V39.1354C43 42.045 42.9668 42.25 39.9821 42.25H20.0179C17.0332 42.25 17 42.045 17 39.1354V12.8646C17 9.95492 17.0332 9.74997 20.0179 9.74997Z" fill="white"/>
<path fill-rule="evenodd" clip-rule="evenodd" d="M28.3253 28.4136L25.0897 28.4136C24.1962 28.4136 23.4719 27.6893 23.4719 26.7958C23.4719 25.9023 24.1962 25.178 25.0897 25.178L28.3253 25.178L28.3253 21.9424C28.3253 21.0489 29.0496 20.3246 29.9431 20.3246C30.8366 20.3246 31.5609 21.0489 31.5609 21.9424L31.5609 25.178H34.7965C35.6899 25.178 36.4143 25.9023 36.4143 26.7958C36.4143 27.6893 35.6899 28.4136 34.7965 28.4136H31.5609L31.5609 31.6492C31.5609 32.5427 30.8366 33.267 29.9431 33.267C29.0496 33.267 28.3253 32.5427 28.3253 31.6492L28.3253 28.4136Z" fill="white"/>
</svg>
