<svg width="28" height="27" viewBox="0 0 28 27" fill="none" xmlns="http://www.w3.org/2000/svg">
<path opacity="0.3" fill-rule="evenodd" clip-rule="evenodd" d="M15.0958 18.8063L19.7049 12.5375H16.2481V6.26877L9.33453 15.6719H12.7913V18.8063H4.66786C3.80875 18.8063 3.1123 18.1047 3.1123 17.2391V1.56719C3.1123 0.701656 3.80875 0 4.66786 0H23.3345C24.1936 0 24.8901 0.701656 24.8901 1.56719V17.2391C24.8901 18.1047 24.1936 18.8063 23.3345 18.8063H15.0958Z" fill="#545454"/>
<path fill-rule="evenodd" clip-rule="evenodd" d="M10.5845 13.9707L9.33333 15.6724H12.7901V21.9411L19.7037 12.538H19.3846L26.7668 7.16648C27.1151 6.91309 27.6013 6.9921 27.8528 7.34293C27.9485 7.47647 28 7.637 28 7.80172V23.5083C28 25.2394 26.6071 26.6427 24.8889 26.6427H3.11111C1.39289 26.6427 0 25.2394 0 23.5083V7.80172C0 7.36895 0.348223 7.01812 0.777778 7.01812C0.941275 7.01812 1.10062 7.07003 1.23316 7.16648L10.5845 13.9707Z" fill="#545454"/>
</svg>
