<svg width="28" height="28" viewBox="0 0 28 28" fill="none" xmlns="http://www.w3.org/2000/svg">
<path d="M14 0C11.231 0 8.52431 0.821081 6.22202 2.35942C3.91973 3.89776 2.12531 6.08427 1.06568 8.64243C0.0060519 11.2006 -0.271176 14.0155 0.269017 16.7313C0.80921 19.447 2.14256 21.9415 4.1005 23.8995C6.05843 25.8574 8.55301 27.1908 11.2687 27.731C13.9845 28.2712 16.7994 27.9939 19.3576 26.9343C21.9157 25.8747 24.1023 24.0803 25.6406 21.778C27.1789 19.4757 28 16.7689 28 14C28 10.287 26.525 6.72601 23.8995 4.1005C21.274 1.47499 17.713 0 14 0ZM18.22 13L17.16 17.21L12.96 18.21L8.75 19.21L9.75 15.01L10.81 10.8L15 9.74L19.22 8.74L18.22 13Z" fill="#545454"/>
</svg>
